<?xml version="1.0" standalone="no"?>
<!DOCTYPE svg PUBLIC "-//W3C//DTD SVG 20010904//EN"
 "http://www.w3.org/TR/2001/REC-SVG-20010904/DTD/svg10.dtd">
<svg version="1.0" xmlns="http://www.w3.org/2000/svg"
 width="512.000000pt" height="512.000000pt" viewBox="0 0 512.000000 512.000000"
 preserveAspectRatio="xMidYMid meet">
<metadata>
Created by potrace 1.16, written by Peter Selinger 2001-2019
</metadata>
<g transform="translate(0.000000,512.000000) scale(0.100000,-0.100000)"
fill="#000000" stroke="none">
<path d="M93 5094 c-62 -37 -93 -95 -93 -174 0 -80 31 -138 94 -175 41 -24 50
-25 199 -25 86 0 179 -5 208 -11 63 -14 122 -63 143 -122 12 -34 476 -2589
476 -2623 0 -5 -26 -22 -58 -38 -126 -65 -248 -223 -287 -372 -19 -74 -19
-233 0 -307 42 -162 161 -309 311 -384 45 -22 86 -42 93 -44 9 -3 8 -19 -4
-64 -20 -77 -19 -230 1 -308 53 -206 225 -378 430 -431 79 -20 228 -21 307 0
208 54 377 223 431 431 20 75 21 230 2 301 l-13 52 627 0 627 0 -13 -52 c-19
-71 -18 -226 2 -301 53 -206 225 -378 430 -431 79 -20 228 -21 307 0 209 54
377 223 432 435 24 89 17 272 -13 348 l-21 54 24 42 c54 91 23 223 -62 277
l-38 23 -1660 5 c-1597 5 -1661 6 -1695 24 -75 40 -110 96 -110 176 0 80 35
136 110 176 34 18 93 19 1510 24 l1475 5 70 29 c145 60 263 166 324 292 24 49
92 292 244 863 200 759 210 801 215 906 3 82 0 126 -13 174 -52 202 -205 363
-410 432 -33 11 -357 15 -1810 19 l-1770 5 -32 180 c-36 205 -55 260 -119 356
-57 86 -129 150 -219 195 -116 57 -155 64 -395 64 -212 0 -216 0 -257 -26z
m4512 -1200 c70 -38 105 -95 105 -171 -1 -76 -401 -1584 -434 -1633 -14 -22
-45 -50 -69 -62 l-42 -23 -1317 -3 c-725 -1 -1318 1 -1318 6 0 5 -76 435 -170
956 -93 520 -170 949 -170 951 0 3 759 4 1688 3 l1687 -3 40 -21z m-2757
-3123 c67 -34 102 -93 102 -171 0 -111 -79 -190 -190 -190 -111 0 -190 79
-190 190 0 111 77 189 188 190 33 0 67 -7 90 -19z m2400 0 c67 -34 102 -93
102 -171 0 -111 -79 -190 -190 -190 -111 0 -190 79 -190 190 0 111 77 189 188
190 33 0 67 -7 90 -19z"/>
<path d="M2453 3134 c-62 -37 -93 -95 -93 -174 0 -80 31 -138 94 -175 l43 -25
463 0 463 0 43 25 c63 37 94 95 94 175 0 80 -31 138 -94 175 l-43 25 -464 0
-464 0 -42 -26z"/>
</g>
</svg>
