<?xml version="1.0" standalone="no"?>
<!DOCTYPE svg PUBLIC "-//W3C//DTD SVG 20010904//EN"
 "http://www.w3.org/TR/2001/REC-SVG-20010904/DTD/svg10.dtd">
<svg version="1.0" xmlns="http://www.w3.org/2000/svg"
 width="512.000000pt" height="512.000000pt" viewBox="0 0 512.000000 512.000000"
 preserveAspectRatio="xMidYMid meet">

<g transform="translate(0.000000,512.000000) scale(0.100000,-0.100000)"
fill="#000000" stroke="none">
<path d="M1884 5105 c-104 -22 -191 -71 -275 -155 -85 -84 -130 -161 -158
-272 -10 -38 -22 -72 -27 -77 -5 -5 -128 -71 -274 -146 -146 -76 -298 -161
-339 -188 -206 -138 -383 -370 -460 -602 -70 -211 -65 -87 -68 -1670 -2 -1149
-1 -1435 10 -1455 7 -14 27 -34 44 -45 l32 -20 1 -197 c0 -214 5 -240 51 -264
41 -21 667 -21 708 0 46 24 51 50 51 266 0 116 4 200 9 200 26 0 71 54 77 91
4 22 9 38 13 37 3 -2 27 -14 54 -28 l47 -24 0 -238 c0 -256 4 -279 51 -304 42
-21 2216 -21 2258 0 47 25 51 48 51 304 l0 238 48 24 c26 14 50 26 53 28 4 1
9 -15 13 -37 6 -37 51 -91 77 -91 5 0 9 -84 9 -200 0 -216 5 -242 51 -266 41
-21 667 -21 708 0 46 24 51 50 51 264 l1 197 32 20 c17 11 37 31 44 45 11 20
13 305 10 1455 -3 1326 -4 1435 -21 1505 -63 270 -175 471 -357 644 -114 108
-178 149 -480 306 -140 73 -263 138 -274 145 -14 8 -25 32 -33 71 -21 105 -74
199 -160 283 -87 87 -170 133 -279 156 -95 20 -1256 20 -1349 0z m1028 -217
c-11 -18 -93 -152 -181 -298 -89 -146 -166 -265 -171 -265 -5 0 -82 119 -171
265 -88 146 -170 280 -181 298 l-20 32 372 0 372 0 -20 -32z m-776 -267 c95
-157 172 -286 171 -288 -2 -1 -153 60 -336 135 l-333 137 6 30 c20 98 123 217
221 255 91 35 79 47 271 -269z m1121 267 c96 -36 199 -155 219 -253 l6 -31
-333 -137 c-183 -75 -334 -135 -336 -134 -2 2 268 451 333 555 18 28 38 28
111 0z m-1417 -582 l275 -114 5 -393 c5 -414 7 -426 51 -450 42 -22 91 -14
121 20 l28 31 0 350 c0 193 4 350 8 350 5 0 53 -18 107 -40 54 -22 110 -40
125 -40 15 0 71 18 125 40 54 22 102 40 107 40 4 0 8 -207 8 -461 l0 -461 29
-29 c46 -45 131 -35 158 19 4 9 10 244 13 520 l5 504 290 119 290 119 225
-116 c124 -64 229 -120 234 -125 5 -4 -9 -69 -33 -151 -82 -286 -133 -585
-151 -889 -12 -220 -13 -500 -1 -532 27 -70 109 -90 160 -39 l28 27 6 295 c7
299 21 473 58 679 39 222 110 491 130 491 18 0 174 -163 218 -229 91 -134 150
-293 171 -461 6 -54 10 -551 10 -1392 l0 -1308 -295 0 -295 0 0 550 c0 615 3
589 -69 611 -31 9 -43 8 -69 -5 -57 -29 -57 -25 -62 -486 -5 -412 -6 -426 -27
-465 -27 -51 -85 -106 -143 -136 l-45 -24 -1075 0 -1075 0 -45 24 c-58 30
-116 85 -143 136 l-22 40 -6 1135 c-5 959 -8 1156 -22 1272 -32 273 -71 470
-137 701 -22 77 -40 143 -40 147 0 14 463 250 480 245 8 -3 139 -56 290 -119z
m-885 -471 c40 -162 67 -314 91 -505 16 -120 18 -279 21 -1392 l4 -1258 -295
0 -296 0 0 1308 c0 841 4 1338 10 1392 30 245 126 440 303 614 l91 89 18 -54
c10 -30 34 -117 53 -194z m2585 -3475 l0 -160 -980 0 -980 0 0 160 0 160 980
0 980 0 0 -160z m-2560 -20 l0 -140 -205 0 -205 0 0 140 0 140 205 0 205 0 0
-140z m3570 0 l0 -140 -205 0 -205 0 0 140 0 140 205 0 205 0 0 -140z"/>
<path d="M3904 2281 c-45 -27 -61 -79 -39 -124 30 -63 107 -77 156 -28 51 51
33 137 -33 160 -42 15 -48 14 -84 -8z"/>
<path d="M2099 1962 c-26 -23 -32 -37 -39 -95 -21 -167 -128 -276 -293 -297
-62 -8 -76 -13 -99 -40 -39 -42 -38 -92 1 -131 26 -25 37 -29 88 -29 73 0 161
22 227 58 113 61 217 186 252 302 l18 60 306 0 306 0 18 -60 c48 -161 210
-311 376 -349 25 -6 71 -11 103 -11 52 0 62 4 88 29 39 39 40 89 1 131 -23 27
-37 32 -99 40 -165 21 -272 130 -293 297 -7 58 -13 72 -39 95 l-31 28 -430 0
-430 0 -31 -28z"/>
</g>
</svg>
