<?xml version="1.0" standalone="no"?>
<!DOCTYPE svg PUBLIC "-//W3C//DTD SVG 20010904//EN"
 "http://www.w3.org/TR/2001/REC-SVG-20010904/DTD/svg10.dtd">
<svg version="1.0" xmlns="http://www.w3.org/2000/svg"
 width="512.000000pt" height="512.000000pt" viewBox="0 0 512.000000 512.000000"
 preserveAspectRatio="xMidYMid meet">

<g transform="translate(0.000000,512.000000) scale(0.100000,-0.100000)"
fill="#000000" stroke="none">
<path d="M1760 5030 c-91 -49 -175 -101 -188 -116 -21 -24 -23 -35 -21 -112
l3 -86 -319 -118 c-176 -65 -356 -136 -401 -158 -213 -107 -392 -313 -470
-543 -55 -161 -54 -127 -54 -1604 0 -1450 -1 -1409 45 -1426 13 -6 15 -36 15
-206 0 -197 0 -200 24 -228 l24 -28 321 -3 320 -3 33 30 c31 28 33 33 36 109
l4 81 74 -56 74 -56 0 -213 c0 -144 4 -222 12 -239 26 -58 -37 -55 1268 -55
1305 0 1242 -3 1268 55 8 17 12 95 12 239 l0 213 70 52 c39 29 71 58 72 64 0
7 4 -28 7 -77 6 -84 8 -90 39 -117 l33 -30 320 3 321 3 24 28 c24 28 24 31 24
228 0 170 2 200 15 206 46 17 45 -24 45 1426 0 1496 2 1450 -60 1618 -83 229
-254 423 -464 529 -45 22 -225 94 -401 159 l-320 118 4 86 c3 84 2 87 -25 115
-16 15 -101 67 -190 115 l-160 87 -635 0 -634 0 -165 -90z m1238 -120 c-8 -24
-433 -840 -438 -840 -5 0 -430 816 -438 840 -3 7 147 10 438 10 291 0 441 -3
438 -10z m-882 -425 c112 -215 203 -393 204 -397 0 -11 -79 20 -149 58 -216
119 -360 317 -408 560 -9 46 -14 86 -12 88 13 13 146 84 153 82 5 -1 100 -177
212 -391z m1181 351 l73 -38 -6 -42 c-18 -128 -78 -279 -149 -376 -42 -58
-146 -157 -210 -200 -49 -34 -196 -103 -203 -95 -2 2 62 131 143 287 224 432
266 509 273 506 4 -2 40 -20 79 -42z m-1663 -383 c123 -299 426 -537 754 -593
l72 -12 0 -600 0 -600 34 -34 c50 -50 115 -43 149 16 15 25 17 86 17 619 l0
591 60 0 c72 0 109 -17 147 -67 l28 -36 3 -1482 2 -1481 -23 -44 c-30 -57 -89
-90 -164 -90 l-53 0 0 580 c0 630 1 623 -55 648 -33 15 -57 15 -90 0 -56 -25
-55 -18 -55 -648 l0 -581 -498 3 -497 3 -67 33 c-83 41 -158 120 -189 200 -18
48 -23 83 -27 216 l-4 158 441 442 441 442 0 43 c0 43 -2 46 -167 213 -93 93
-180 176 -195 184 -62 32 -68 28 -293 -196 -116 -115 -214 -210 -218 -210 -4
0 -7 220 -7 489 l0 490 -23 26 c-14 17 -36 28 -63 32 -36 5 -46 1 -75 -25
l-34 -30 -3 -1051 -2 -1051 -235 0 -235 0 2 1333 c4 1502 -4 1367 85 1547 39
79 61 109 137 186 60 60 115 104 161 130 53 29 676 271 706 273 3 1 18 -29 33
-66z m2197 -48 c394 -146 428 -163 550 -285 82 -81 102 -108 142 -190 89 -181
81 -45 85 -1547 l2 -1333 -235 0 -235 0 -2 1051 -3 1051 -34 30 c-29 26 -39
30 -75 25 -27 -4 -49 -15 -63 -32 l-23 -26 0 -490 c0 -269 -3 -489 -7 -489 -4
0 -102 95 -218 210 -225 224 -231 228 -293 196 -15 -8 -92 -80 -172 -160
l-145 -146 -5 747 -5 748 -28 60 c-16 33 -39 72 -53 86 l-25 26 70 42 c183
108 317 252 404 433 29 59 53 107 54 108 1 0 142 -52 314 -115z m-2094 -2147
l83 -83 -312 -312 c-172 -172 -316 -313 -320 -313 -5 0 -8 73 -8 162 l0 163
232 232 c128 128 235 233 238 233 2 0 42 -37 87 -82z m1970 -150 l233 -233 0
-162 c0 -90 -3 -163 -7 -163 -5 0 -149 141 -320 312 l-313 313 82 82 c46 46
85 83 88 83 3 0 110 -105 237 -232z m230 -1013 c-3 -135 -7 -169 -26 -217 -31
-80 -106 -159 -189 -200 l-67 -33 -296 -3 -297 -3 19 61 c18 58 19 100 19 728
l0 667 421 -420 421 -420 -5 -160z m-3007 -370 l0 -125 -180 0 -180 0 0 125 0
125 180 0 180 0 0 -125z m3620 0 l0 -125 -180 0 -180 0 0 125 0 125 180 0 180
0 0 -125z m-910 -405 l0 -120 -1080 0 -1080 0 0 120 0 120 1080 0 1080 0 0
-120z"/>
<path d="M2514 2319 c-60 -30 -67 -117 -13 -163 82 -69 192 20 147 119 -21 46
-85 67 -134 44z"/>
</g>
</svg>
