<?xml version="1.0" standalone="no"?>
<!DOCTYPE svg PUBLIC "-//W3C//DTD SVG 20010904//EN"
 "http://www.w3.org/TR/2001/REC-SVG-20010904/DTD/svg10.dtd">
<svg version="1.0" xmlns="http://www.w3.org/2000/svg"
 width="512.000000pt" height="512.000000pt" viewBox="0 0 512.000000 512.000000"
 preserveAspectRatio="xMidYMid meet">

<g transform="translate(0.000000,512.000000) scale(0.100000,-0.100000)"
fill="#000000" stroke="none">
<path d="M1149 5105 c-47 -26 -50 -47 -49 -354 l1 -286 -31 -89 c-62 -180
-111 -414 -130 -626 -5 -63 -10 -260 -10 -438 0 -350 2 -366 55 -390 51 -23
107 -7 131 39 11 22 14 79 14 263 l0 234 53 12 c28 7 94 32 145 56 162 78 288
228 344 412 17 56 21 103 25 285 l5 217 379 0 379 0 0 -423 0 -423 -190 -1660
c-104 -912 -193 -1676 -196 -1696 l-6 -38 -469 0 -469 0 0 965 c0 1049 2 1007
-55 1033 -33 15 -57 15 -90 0 -57 -26 -55 22 -55 -1092 0 -773 3 -1031 12
-1051 25 -56 17 -55 653 -55 632 0 628 0 652 52 6 14 78 608 159 1321 82 713
151 1297 154 1297 3 0 72 -583 153 -1297 82 -713 154 -1307 160 -1320 24 -53
19 -53 652 -53 636 0 628 -1 653 55 16 34 17 3507 2 3690 -18 212 -66 443
-130 630 l-31 90 1 286 c1 310 -2 329 -51 355 -41 21 -2781 20 -2820 -1z m521
-325 l0 -140 -185 0 -185 0 0 140 0 140 185 0 185 0 0 -140z m570 0 l0 -140
-185 0 -185 0 0 140 0 140 185 0 185 0 0 -140z m440 0 l0 -140 -120 0 -120 0
0 140 0 140 120 0 120 0 0 -140z m570 0 l0 -140 -185 0 -185 0 0 140 0 140
185 0 185 0 0 -140z m570 0 l0 -140 -185 0 -185 0 0 140 0 140 185 0 185 0 0
-140z m-2322 -547 c-6 -252 -17 -295 -111 -415 -46 -59 -189 -148 -237 -148
-39 0 25 380 106 632 l45 138 100 0 101 0 -4 -207z m1362 -36 c0 -270 -7 -312
-60 -386 -27 -37 -110 -101 -132 -101 -4 0 -8 164 -8 365 l0 365 100 0 100 0
0 -243z m563 26 c5 -247 14 -289 80 -418 62 -118 164 -217 288 -277 52 -26
118 -52 147 -58 l52 -12 0 -1629 0 -1629 -469 0 -469 0 -6 38 c-3 20 -87 746
-186 1612 -99 866 -182 1591 -186 1611 -5 37 -5 37 45 54 158 52 295 207 330
373 6 30 11 159 11 302 l0 250 179 0 179 0 5 -217z m441 79 c81 -252 145 -632
106 -632 -48 0 -191 89 -237 148 -94 120 -105 163 -111 415 l-4 207 101 0 100
0 45 -138z"/>
<path d="M981 2646 c-49 -27 -64 -86 -34 -136 38 -66 134 -65 169 1 46 91 -47
184 -135 135z"/>
</g>
</svg>
