<?xml version="1.0" standalone="no"?>
<!DOCTYPE svg PUBLIC "-//W3C//DTD SVG 20010904//EN"
 "http://www.w3.org/TR/2001/REC-SVG-20010904/DTD/svg10.dtd">
<svg version="1.0" xmlns="http://www.w3.org/2000/svg"
 width="512.000000pt" height="512.000000pt" viewBox="0 0 512.000000 512.000000"
 preserveAspectRatio="xMidYMid meet">

<g transform="translate(0.000000,512.000000) scale(0.100000,-0.100000)"
fill="#000000" stroke="none">
<path d="M1889 4117 c-71 -20 -404 -206 -451 -252 -63 -61 -92 -134 -92 -225
0 -69 5 -86 62 -222 34 -80 62 -150 62 -155 0 -10 -260 -179 -308 -201 -24
-10 -67 -16 -122 -16 -124 -1 -185 29 -290 144 -103 113 -165 144 -285 144
-101 0 -173 -30 -244 -103 -87 -90 -85 -76 -153 -861 -70 -804 -74 -904 -40
-1002 59 -169 186 -291 371 -356 40 -14 137 -16 746 -19 l701 -4 34 23 c55 38
63 97 21 149 l-19 24 -704 5 -703 5 -57 23 c-75 31 -150 101 -185 177 -26 56
-28 67 -26 183 0 68 4 134 7 148 l6 24 826 0 c582 0 831 3 846 11 11 6 41 27
67 46 86 66 174 89 278 73 111 -18 151 -46 353 -245 173 -171 188 -184 230
-190 25 -3 263 -5 530 -3 554 5 529 1 653 94 74 57 86 61 232 88 185 34 452
112 633 185 l54 21 -7 -42 c-26 -170 -131 -335 -266 -420 -85 -54 -146 -76
-306 -108 -290 -58 -343 -62 -1027 -67 l-630 -5 -28 -28 c-39 -39 -38 -88 1
-132 l29 -33 619 0 c530 1 639 3 763 18 162 20 358 57 468 87 269 75 476 282
554 557 18 63 22 103 22 208 0 116 -3 138 -28 210 -69 198 -221 359 -406 429
-37 13 -140 41 -230 61 -607 133 -1137 302 -1626 516 l-90 40 -254 436 c-139
240 -267 451 -283 470 -65 74 -212 117 -308 90z m125 -205 c35 -16 52 -41 216
-322 98 -168 176 -307 174 -309 -3 -4 -253 130 -386 207 -100 57 -114 55 -259
-42 l-113 -76 -50 118 c-74 174 -67 214 50 281 112 64 304 161 316 161 7 0 30
-8 52 -18z m15 -661 c58 -32 138 -75 176 -94 122 -62 122 -48 5 -170 -56 -59
-106 -107 -111 -107 -7 0 -472 205 -492 217 -6 4 299 212 312 213 2 0 52 -26
110 -59z m-1506 -125 c18 -7 55 -40 82 -73 123 -146 253 -208 435 -207 122 1
192 20 296 84 l65 39 617 -276 c339 -151 620 -278 624 -282 4 -4 -68 -82 -160
-174 l-167 -166 -68 9 c-124 18 -258 -14 -376 -90 l-62 -40 -784 0 -785 0 0
43 c1 23 20 267 43 542 48 556 46 548 122 585 47 23 74 25 118 6z m2114 -180
c65 -30 147 -66 183 -81 36 -15 68 -30 72 -34 4 -4 -41 -54 -100 -113 l-107
-106 -190 86 c-104 47 -192 87 -194 89 -6 4 201 213 211 213 4 0 60 -24 125
-54z m525 -217 c29 -12 157 -56 283 -98 127 -43 230 -82 230 -87 1 -5 -17 -24
-40 -43 -128 -107 -262 -147 -401 -117 -57 11 -322 121 -342 141 -5 4 206 225
215 225 1 0 26 -10 55 -21z m896 -278 c64 -17 209 -50 322 -75 244 -55 308
-82 395 -170 52 -52 124 -161 113 -170 -1 -2 -48 -21 -103 -44 -196 -79 -410
-140 -638 -182 -126 -23 -185 -46 -247 -99 -83 -70 -49 -66 -563 -69 l-469 -3
-177 173 -177 173 166 168 166 168 126 -55 c166 -74 229 -89 353 -88 177 1
300 54 483 207 63 52 118 95 124 95 5 0 62 -13 126 -29z"/>
<path d="M2209 1161 c-39 -40 -40 -89 0 -133 22 -25 37 -32 65 -32 65 0 117
61 102 120 -19 75 -112 100 -167 45z"/>
</g>
</svg>
