<?xml version="1.0" standalone="no"?>
<!DOCTYPE svg PUBLIC "-//W3C//DTD SVG 20010904//EN"
 "http://www.w3.org/TR/2001/REC-SVG-20010904/DTD/svg10.dtd">
<svg version="1.0" xmlns="http://www.w3.org/2000/svg"
 width="512.000000pt" height="512.000000pt" viewBox="0 0 512.000000 512.000000"
 preserveAspectRatio="xMidYMid meet">

<g transform="translate(0.000000,512.000000) scale(0.100000,-0.100000)"
fill="#000000" stroke="none">
<path d="M1812 5105 c-12 -9 -85 -96 -162 -194 -77 -99 -146 -184 -154 -190
-7 -6 -177 -67 -377 -136 -238 -83 -372 -134 -386 -148 -27 -27 -733 -1517
-733 -1547 0 -55 24 -72 443 -328 357 -217 421 -252 455 -252 47 0 71 21 134
118 l43 66 5 -1218 5 -1218 33 -29 32 -29 491 0 c532 0 532 0 557 55 15 33 15
57 0 90 -25 54 -31 55 -493 55 l-425 0 0 120 0 120 1280 0 1280 0 0 -120 0
-120 -425 0 c-462 0 -468 -1 -493 -55 -15 -33 -15 -57 0 -90 25 -55 25 -55
557 -55 l491 0 32 29 33 29 5 1218 5 1218 43 -66 c64 -98 87 -118 135 -118 34
0 95 34 454 252 419 256 443 273 443 328 0 30 -706 1520 -733 1547 -15 15
-145 65 -386 148 -201 69 -371 131 -378 136 -7 6 -76 91 -153 190 -77 98 -150
185 -162 194 -20 13 -109 15 -748 15 -639 0 -728 -2 -748 -15z m975 -412
l-227 -228 -227 228 -228 227 455 0 455 0 -228 -227z m-535 -253 c-16 -14 -84
-71 -150 -128 l-121 -102 -127 177 c-70 98 -137 192 -150 208 l-23 31 96 123
96 123 204 -204 204 -203 -29 -25z m1102 295 l85 -109 -23 -31 c-13 -16 -80
-110 -150 -208 l-127 -177 -97 82 c-54 46 -121 103 -150 127 l-53 45 203 203
c159 159 205 200 215 190 6 -6 50 -61 97 -122z m-1644 -490 c159 -222 191
-262 223 -273 32 -13 40 -13 71 4 19 11 121 92 227 182 l192 163 49 -48 c41
-41 54 -48 88 -48 34 0 47 7 89 49 l49 48 201 -172 c111 -94 215 -176 230
-181 62 -22 84 0 268 257 94 132 179 249 189 262 l19 22 321 -111 322 -111
227 -480 c124 -264 225 -481 223 -483 -8 -7 -649 -395 -653 -395 -2 0 -5 75
-7 166 l-3 166 -34 30 c-29 26 -39 30 -75 25 -27 -4 -49 -15 -63 -32 l-23 -26
0 -1310 0 -1309 -1280 0 -1280 0 0 1309 0 1310 -23 26 c-14 17 -36 28 -63 32
-36 5 -46 1 -75 -25 l-34 -30 -3 -166 c-2 -91 -5 -166 -7 -166 -3 0 -645 389
-653 395 -2 2 99 219 223 483 l227 479 317 111 c174 60 320 109 326 108 5 -2
93 -119 195 -261z m-1062 -1292 c169 -102 317 -193 329 -200 22 -15 22 -15
-44 -114 -36 -54 -68 -97 -72 -95 -13 8 -626 379 -629 381 -5 4 97 215 103
215 4 0 145 -84 313 -187z m4193 81 c27 -59 48 -108 47 -109 -4 -3 -622 -377
-629 -381 -4 -2 -36 41 -72 96 l-66 99 122 74 c67 42 214 132 327 201 113 69
209 125 213 126 4 0 30 -48 58 -106z"/>
<path d="M2493 3976 c-23 -20 -28 -32 -28 -71 0 -60 35 -95 95 -95 60 0 95 35
95 95 0 60 -35 95 -95 95 -27 0 -48 -8 -67 -24z"/>
<path d="M2524 3581 c-12 -5 -31 -22 -44 -38 -17 -22 -21 -36 -17 -68 16 -115
178 -115 194 1 4 35 1 46 -23 73 -31 33 -76 46 -110 32z"/>
<path d="M2511 186 c-87 -48 -50 -186 49 -186 51 0 100 49 100 99 0 75 -83
124 -149 87z"/>
</g>
</svg>
